<svg aria-hidden="true" style="position: absolute; width: 0; height: 0; overflow: hidden;" version="1.1" xmlns="http://www.w3.org/2000/svg" xmlns:xlink="http://www.w3.org/1999/xlink">
<defs>
<symbol id="icon-arrow_long" viewBox="0 0 32 32">
<path fill="#a3a3a3" style="fill: var(--color1, #a3a3a3)" d="M31.968 31.010c0.139-0.052 0.21-0.206 0.159-0.346l-0.841-2.268c-0.052-0.139-0.206-0.21-0.346-0.159s-0.21 0.206-0.158 0.346l0.748 2.016-2.016 0.748c-0.139 0.052-0.21 0.206-0.158 0.345s0.206 0.21 0.345 0.159l2.268-0.841zM16.153 16.901c0.062-0.135 0.003-0.294-0.132-0.356s-0.294-0.003-0.356 0.132l0.489 0.224zM13.758 9.242v0zM15.664 16.677c-0.062 0.135-0.003 0.294 0.132 0.356s0.295 0.003 0.356-0.132l-0.489-0.224zM0.907 1.049c0.124 0.082 0.291 0.048 0.373-0.076s0.048-0.291-0.076-0.373l-0.297 0.448zM3.926 2.405c-0.124-0.082-0.291-0.048-0.373 0.076s-0.048 0.291 0.076 0.373l0.297-0.448zM5.444 4.055c0.124 0.082 0.291 0.048 0.372-0.076s0.048-0.291-0.076-0.373l-0.297 0.448zM8.462 5.411c-0.124-0.082-0.291-0.048-0.373 0.076s-0.048 0.291 0.076 0.373l0.297-0.448zM9.98 7.061c0.124 0.082 0.291 0.048 0.373-0.076s0.048-0.291-0.076-0.373l-0.297 0.448zM12.999 8.417c-0.124-0.082-0.291-0.048-0.373 0.076s-0.048 0.291 0.076 0.373l0.297-0.448zM14.256 9.963c0.111 0.099 0.281 0.088 0.379-0.023s0.088-0.281-0.023-0.379l-0.357 0.402zM16.182 11.706c-0.060-0.136-0.219-0.197-0.355-0.136s-0.197 0.219-0.136 0.355l0.491-0.219zM16.137 13.49c0.020 0.147 0.156 0.25 0.303 0.23s0.25-0.156 0.23-0.303l-0.533 0.073zM16.467 16.067c0.042-0.142-0.039-0.292-0.181-0.334s-0.292 0.039-0.334 0.181l0.515 0.153zM15.323 17.605c-0.040 0.143 0.043 0.291 0.186 0.332s0.291-0.043 0.332-0.186l-0.517-0.146zM15.739 20.44c-0.029-0.146-0.171-0.24-0.317-0.21s-0.24 0.171-0.21 0.317l0.527-0.106zM15.898 22.395c0.073 0.129 0.236 0.175 0.366 0.103s0.176-0.236 0.103-0.366l-0.469 0.263zM18.196 24.106c-0.124-0.082-0.29-0.048-0.373 0.075s-0.048 0.291 0.075 0.373l0.297-0.448zM19.63 25.433c0.135 0.062 0.294 0.003 0.356-0.132s0.003-0.294-0.132-0.356l-0.224 0.489zM22.454 26.137c-0.135-0.062-0.295-0.003-0.356 0.132s-0.003 0.295 0.132 0.356l0.224-0.489zM23.963 27.422c0.135 0.062 0.294 0.003 0.356-0.132s0.003-0.294-0.132-0.356l-0.224 0.489zM26.787 28.126c-0.135-0.062-0.294-0.003-0.356 0.132s-0.003 0.295 0.132 0.356l0.224-0.489zM28.296 29.411c0.135 0.062 0.295 0.003 0.356-0.132s0.003-0.294-0.132-0.356l-0.224 0.489zM31.12 30.116c-0.135-0.062-0.294-0.003-0.356 0.132s-0.003 0.295 0.132 0.356l0.224-0.489zM0 0.448l0.907 0.601 0.297-0.448-0.907-0.601-0.297 0.448zM3.629 2.853l1.815 1.202 0.297-0.448-1.815-1.202-0.297 0.448zM8.165 5.859l1.815 1.202 0.297-0.448-1.815-1.202-0.297 0.448zM12.702 8.865l0.907 0.601 0.297-0.448-0.907-0.601-0.297 0.448zM13.609 9.466c0.23 0.152 0.446 0.319 0.647 0.497l0.357-0.402c-0.22-0.195-0.456-0.377-0.707-0.543l-0.297 0.448zM15.691 11.925c0.222 0.498 0.372 1.025 0.446 1.565l0.533-0.073c-0.081-0.59-0.245-1.166-0.488-1.711l-0.491 0.219zM15.952 15.913c-0.077 0.258-0.172 0.513-0.288 0.764l0.489 0.224c0.126-0.274 0.23-0.553 0.314-0.834l-0.515-0.153zM15.664 16.677c-0.14 0.305-0.253 0.615-0.342 0.928l0.517 0.146c0.081-0.286 0.185-0.57 0.313-0.849l-0.489-0.224zM15.212 20.546c0.131 0.648 0.362 1.272 0.685 1.849l0.469-0.263c-0.296-0.527-0.508-1.099-0.627-1.692l-0.527 0.106zM17.899 24.554c0.271 0.18 0.559 0.341 0.864 0.481l0.224-0.489c-0.279-0.128-0.543-0.276-0.791-0.44l-0.297 0.448zM18.763 25.035l0.867 0.398 0.224-0.489-0.867-0.398-0.224 0.489zM22.23 26.626l1.733 0.796 0.224-0.489-1.733-0.796-0.224 0.489zM26.563 28.615l1.733 0.796 0.224-0.489-1.733-0.796-0.224 0.489zM30.896 30.604l0.867 0.398 0.224-0.489-0.867-0.398-0.224 0.489z"></path>
</symbol>
<symbol id="icon-arrow_short" viewBox="0 0 92 32">
<path fill="#a3a3a3" style="fill: var(--color1, #a3a3a3)" d="M91.974 24.704c0.411-0.41 0.411-1.076 0-1.486l-6.689-6.689c-0.41-0.41-1.076-0.41-1.486 0s-0.41 1.076 0 1.486l5.946 5.946-5.946 5.946c-0.41 0.41-0.41 1.076 0 1.486s1.076 0.41 1.486 0l6.689-6.689zM44.615 11.728c-0.34-0.471-0.997-0.577-1.467-0.237s-0.577 0.997-0.237 1.467l1.704-1.231zM66.482 23.96v0zM42.911 12.959c0.34 0.471 0.997 0.577 1.467 0.237s0.577-0.997 0.237-1.467l-1.704 1.231zM3.514 5.896c0.555-0.169 0.868-0.757 0.699-1.312s-0.757-0.868-1.312-0.699l0.613 2.011zM9.663 1.824c-0.555 0.169-0.868 0.757-0.699 1.312s0.757 0.868 1.312 0.699l-0.613-2.011zM16.944 2.090c0.574-0.088 0.967-0.625 0.879-1.199s-0.625-0.967-1.199-0.879l0.32 2.078zM26.289 0.152c-0.571-0.105-1.119 0.273-1.224 0.844s0.273 1.119 0.844 1.224l0.38-2.068zM33.212 4.678c0.518 0.262 1.15 0.054 1.412-0.464s0.054-1.15-0.464-1.412l-0.948 1.876zM41.942 8.535c-0.403-0.417-1.069-0.429-1.486-0.025s-0.429 1.069-0.025 1.486l1.511-1.461zM44.906 15.426c0.389 0.431 1.054 0.465 1.484 0.076s0.465-1.054 0.076-1.484l-1.56 1.409zM51.659 18.471c-0.485-0.319-1.137-0.184-1.456 0.301s-0.184 1.137 0.301 1.456l1.155-1.756zM56.144 23.111c0.542 0.206 1.15-0.066 1.356-0.609s-0.066-1.15-0.609-1.356l-0.748 1.965zM63.544 22.749c-0.577-0.063-1.096 0.353-1.159 0.93s0.353 1.096 0.93 1.159l0.229-2.090zM72.198 25.011c0.58 0 1.051-0.471 1.051-1.051s-0.471-1.051-1.051-1.051v2.102zM85.516 22.909c-0.581 0-1.051 0.471-1.051 1.051s0.471 1.051 1.051 1.051v-2.102zM0.613 6.781l2.901-0.885-0.613-2.011-2.901 0.885 0.613 2.011zM10.276 3.835l2.901-0.885-0.613-2.011-2.901 0.885 0.613 2.011zM13.177 2.95c1.247-0.38 2.505-0.666 3.767-0.86l-0.32-2.078c-1.36 0.21-2.716 0.518-4.059 0.927l0.613 2.011zM25.909 2.22c2.539 0.466 4.999 1.295 7.303 2.458l0.948-1.876c-2.483-1.254-5.135-2.147-7.871-2.65l-0.38 2.068zM40.431 9.996c0.887 0.917 1.716 1.906 2.48 2.963l1.704-1.231c-0.822-1.139-1.716-2.204-2.673-3.193l-1.511 1.461zM42.911 12.959c0.623 0.863 1.289 1.686 1.995 2.467l1.56-1.409c-0.654-0.724-1.272-1.488-1.851-2.289l-1.704 1.231zM50.504 20.228c1.769 1.164 3.661 2.131 5.64 2.884l0.748-1.965c-1.836-0.699-3.591-1.596-5.233-2.675l-1.155 1.756zM63.315 24.839c1.046 0.114 2.103 0.173 3.167 0.173v-2.102c-0.988 0-1.969-0.054-2.939-0.16l-0.229 2.090zM66.482 25.011h5.715v-2.102h-5.715v2.102zM85.516 25.011h5.715v-2.102h-5.715v2.102z"></path>
</symbol>
<symbol id="icon-lightning" viewBox="0 0 24 32">
<path d="M22.715 10.768c1.813-0.731 1.961-3.24 0.247-4.181l-11.488-6.302c-1-0.548-2.25-0.288-2.947 0.614l-8.043 10.398c-0.856 1.106-0.544 2.712 0.663 3.418l1.62 0.948c0.931 0.545 1.363 1.66 1.042 2.69l-3.191 10.234c-0.703 2.256 2.025 3.994 3.772 2.403l12.369-11.263c0.959-0.874 0.796-2.427-0.324-3.082-1.379-0.807-1.23-2.846 0.251-3.444l6.027-2.432z"></path>
</symbol>
<symbol id="icon-burger_menu" viewBox="0 0 47 32">
<path stroke-linejoin="miter" stroke-linecap="round" stroke-miterlimit="4" stroke-width="3.0345" d="M1.517 1.517h43.65"></path>
<path stroke-linejoin="miter" stroke-linecap="round" stroke-miterlimit="4" stroke-width="3.0345" d="M1.517 15.523h43.65"></path>
<path stroke-linejoin="miter" stroke-linecap="round" stroke-miterlimit="4" stroke-width="3.0345" d="M1.517 29.528h43.65"></path>
</symbol>
<symbol id="icon-logo" viewBox="0 0 154 32">
<path d="M4.954 10.568c0.44-0.748 1.112-1.376 2.015-1.882 0.925-0.506 2.048-0.76 3.369-0.76 1.277 0 2.422 0.242 3.435 0.727s1.816 1.134 2.411 1.949c0.594 0.815 1.046 1.717 1.354 2.708 0.308 0.969 0.462 1.982 0.462 3.038s-0.154 2.081-0.462 3.071c-0.308 0.969-0.76 1.86-1.354 2.675s-1.398 1.464-2.411 1.948c-1.013 0.484-2.158 0.727-3.435 0.727-2.004 0-3.578-0.594-4.723-1.783v8.554h-5.614v-23.118h4.954v2.147zM11.328 19.023c0.594-0.748 0.892-1.64 0.892-2.675s-0.297-1.927-0.892-2.675c-0.572-0.749-1.409-1.123-2.51-1.123-0.727 0-1.376 0.198-1.949 0.594-0.572 0.374-0.991 0.837-1.255 1.387v3.633c0.264 0.55 0.683 1.024 1.255 1.42 0.572 0.374 1.222 0.561 1.949 0.561 1.101 0 1.938-0.374 2.51-1.123zM26.256 24.274h-5.614v-15.852h5.614v15.852zM26.653 3.071c0 1.035-0.308 1.816-0.925 2.345-0.595 0.506-1.354 0.76-2.279 0.76s-1.695-0.253-2.312-0.76c-0.594-0.528-0.892-1.31-0.892-2.345 0-1.013 0.308-1.772 0.925-2.279 0.616-0.528 1.376-0.793 2.279-0.793 0.925 0 1.684 0.264 2.279 0.793 0.616 0.506 0.925 1.266 0.925 2.279zM29.407 8.422h13.375v3.303l-6.407 7.926h6.869v4.624h-14.3v-3.303l6.44-7.926h-5.978v-4.624zM45.662 8.422h13.376v3.303l-6.407 7.926h6.869v4.624h-14.3v-3.303l6.44-7.926h-5.978v-4.624zM77.175 19.749c0 0.661 0.363 0.991 1.090 0.991 0.22 0 0.429-0.033 0.627-0.099v3.468c-0.837 0.33-1.783 0.495-2.84 0.495-1.761 0-3.016-0.583-3.765-1.75-1.629 1.277-3.468 1.916-5.515 1.916-1.563 0-2.873-0.44-3.93-1.321s-1.585-2.070-1.585-3.567c0-0.947 0.209-1.772 0.627-2.477 0.418-0.727 0.969-1.277 1.651-1.651 0.705-0.374 1.431-0.649 2.18-0.826 0.771-0.176 1.574-0.264 2.411-0.264 1.189 0 2.334 0.121 3.435 0.363v-0.561c0-0.595-0.286-1.068-0.859-1.42-0.55-0.374-1.365-0.561-2.444-0.561-1.673 0-3.523 0.407-5.548 1.222v-4.723c2.158-0.705 4.216-1.057 6.176-1.057 2.708 0 4.767 0.561 6.176 1.684s2.114 3.027 2.114 5.713v4.425zM67.036 19.419c0 0.44 0.176 0.815 0.528 1.123 0.352 0.286 0.815 0.429 1.387 0.429 0.991 0 1.86-0.275 2.609-0.826v-2.147c-0.595-0.198-1.266-0.297-2.015-0.297-1.673 0-2.51 0.573-2.51 1.717zM80.358 12.979c0-1.783 0.65-3.071 1.948-3.864s2.95-1.189 4.954-1.189c2.070 0 4.062 0.451 5.978 1.354v4.459c-0.704-0.484-1.585-0.881-2.642-1.189-1.035-0.33-2.015-0.495-2.939-0.495-1.013 0-1.519 0.264-1.519 0.793 0 0.396 0.286 0.727 0.859 0.991 0.572 0.242 1.266 0.473 2.081 0.694s1.629 0.495 2.444 0.826c0.815 0.308 1.508 0.826 2.081 1.552s0.859 1.64 0.859 2.741c0 3.413-2.521 5.119-7.563 5.119-2.554 0-4.679-0.484-6.374-1.453v-4.459c1.695 1.123 3.721 1.684 6.077 1.684 1.387 0 2.081-0.264 2.081-0.793 0-0.374-0.286-0.683-0.859-0.925-0.573-0.264-1.266-0.506-2.081-0.727s-1.629-0.495-2.444-0.826c-0.815-0.352-1.508-0.892-2.081-1.618s-0.859-1.618-0.859-2.675zM96.981 1.156h5.614v8.455c1.256-1.123 2.72-1.684 4.393-1.684 2.069 0 3.644 0.616 4.722 1.849 1.079 1.211 1.618 2.763 1.618 4.657v9.842h-5.615v-9.082c0-0.815-0.22-1.431-0.66-1.849s-1.023-0.627-1.75-0.627c-1.078 0-1.981 0.462-2.708 1.387v10.172h-5.614v-23.118zM118.276 22.59c-1.695-1.475-2.543-3.556-2.543-6.242s0.847-4.756 2.543-6.209c1.717-1.475 3.842-2.213 6.374-2.213s4.646 0.738 6.341 2.213c1.717 1.453 2.577 3.523 2.577 6.209s-0.859 4.767-2.577 6.242c-1.695 1.453-3.809 2.18-6.341 2.18s-4.656-0.727-6.374-2.18zM127.027 18.825c0.507-0.661 0.76-1.486 0.76-2.477s-0.253-1.816-0.76-2.477c-0.506-0.66-1.298-0.991-2.378-0.991s-1.871 0.33-2.378 0.991c-0.506 0.661-0.759 1.486-0.759 2.477s0.253 1.816 0.759 2.477c0.506 0.66 1.299 0.991 2.378 0.991 1.079 0 1.871-0.33 2.378-0.991zM141.088 10.568c0.441-0.748 1.112-1.376 2.015-1.882 0.925-0.506 2.048-0.76 3.369-0.76 1.277 0 2.421 0.242 3.435 0.727s1.816 1.134 2.411 1.949 1.046 1.717 1.355 2.708c0.307 0.969 0.462 1.982 0.462 3.038s-0.154 2.081-0.462 3.071c-0.308 0.969-0.76 1.86-1.355 2.675s-1.398 1.464-2.411 1.948c-1.013 0.484-2.158 0.727-3.435 0.727-2.003 0-3.578-0.594-4.722-1.783v8.554h-5.615v-23.118h4.953v2.147zM147.463 19.023c0.594-0.748 0.891-1.64 0.891-2.675s-0.297-1.927-0.891-2.675c-0.573-0.749-1.409-1.123-2.511-1.123-0.726 0-1.376 0.198-1.948 0.594-0.572 0.374-0.991 0.837-1.255 1.387v3.633c0.264 0.55 0.683 1.024 1.255 1.42 0.572 0.374 1.222 0.561 1.948 0.561 1.102 0 1.937-0.374 2.511-1.123z"></path>
</symbol>
<symbol id="icon-cart" viewBox="0 0 32 32">
<path d="M12 29c0 1.657-1.343 3-3 3s-3-1.343-3-3c0-1.657 1.343-3 3-3s3 1.343 3 3z"></path>
<path d="M32 29c0 1.657-1.343 3-3 3s-3-1.343-3-3c0-1.657 1.343-3 3-3s3 1.343 3 3z"></path>
<path d="M32 16v-12h-24c0-1.105-0.895-2-2-2h-6v2h4l1.502 12.877c-0.915 0.733-1.502 1.859-1.502 3.123 0 2.209 1.791 4 4 4h24v-2h-24c-1.105 0-2-0.895-2-2 0-0.007 0-0.014 0-0.020l26-3.98z"></path>
</symbol>
<symbol id="icon-play2" viewBox="0 0 32 32">
<path d="M16 0c-8.837 0-16 7.163-16 16s7.163 16 16 16 16-7.163 16-16-7.163-16-16-16zM16 29c-7.18 0-13-5.82-13-13s5.82-13 13-13 13 5.82 13 13-5.82 13-13 13zM12 9l12 7-12 7z"></path>
</symbol>
<symbol id="icon-facebook" viewBox="0 0 32 32">
<path d="M29 0h-26c-1.65 0-3 1.35-3 3v26c0 1.65 1.35 3 3 3h13v-14h-4v-4h4v-2c0-3.306 2.694-6 6-6h4v4h-4c-1.1 0-2 0.9-2 2v2h6l-1 4h-5v14h9c1.65 0 3-1.35 3-3v-26c0-1.65-1.35-3-3-3z"></path>
</symbol>
<symbol id="icon-instagram" viewBox="0 0 32 32">
<path d="M16 2.881c4.275 0 4.781 0.019 6.462 0.094 1.563 0.069 2.406 0.331 2.969 0.55 0.744 0.288 1.281 0.638 1.837 1.194 0.563 0.563 0.906 1.094 1.2 1.838 0.219 0.563 0.481 1.412 0.55 2.969 0.075 1.688 0.094 2.194 0.094 6.463s-0.019 4.781-0.094 6.463c-0.069 1.563-0.331 2.406-0.55 2.969-0.288 0.744-0.637 1.281-1.194 1.837-0.563 0.563-1.094 0.906-1.837 1.2-0.563 0.219-1.413 0.481-2.969 0.55-1.688 0.075-2.194 0.094-6.463 0.094s-4.781-0.019-6.463-0.094c-1.563-0.069-2.406-0.331-2.969-0.55-0.744-0.288-1.281-0.637-1.838-1.194-0.563-0.563-0.906-1.094-1.2-1.837-0.219-0.563-0.481-1.413-0.55-2.969-0.075-1.688-0.094-2.194-0.094-6.463s0.019-4.781 0.094-6.463c0.069-1.563 0.331-2.406 0.55-2.969 0.288-0.744 0.638-1.281 1.194-1.838 0.563-0.563 1.094-0.906 1.838-1.2 0.563-0.219 1.412-0.481 2.969-0.55 1.681-0.075 2.188-0.094 6.463-0.094zM16 0c-4.344 0-4.887 0.019-6.594 0.094-1.7 0.075-2.869 0.35-3.881 0.744-1.056 0.412-1.95 0.956-2.837 1.85-0.894 0.888-1.438 1.781-1.85 2.831-0.394 1.019-0.669 2.181-0.744 3.881-0.075 1.713-0.094 2.256-0.094 6.6s0.019 4.887 0.094 6.594c0.075 1.7 0.35 2.869 0.744 3.881 0.413 1.056 0.956 1.95 1.85 2.837 0.887 0.887 1.781 1.438 2.831 1.844 1.019 0.394 2.181 0.669 3.881 0.744 1.706 0.075 2.25 0.094 6.594 0.094s4.888-0.019 6.594-0.094c1.7-0.075 2.869-0.35 3.881-0.744 1.050-0.406 1.944-0.956 2.831-1.844s1.438-1.781 1.844-2.831c0.394-1.019 0.669-2.181 0.744-3.881 0.075-1.706 0.094-2.25 0.094-6.594s-0.019-4.887-0.094-6.594c-0.075-1.7-0.35-2.869-0.744-3.881-0.394-1.063-0.938-1.956-1.831-2.844-0.887-0.887-1.781-1.438-2.831-1.844-1.019-0.394-2.181-0.669-3.881-0.744-1.712-0.081-2.256-0.1-6.6-0.1v0z"></path>
<path d="M16 7.781c-4.537 0-8.219 3.681-8.219 8.219s3.681 8.219 8.219 8.219 8.219-3.681 8.219-8.219c0-4.537-3.681-8.219-8.219-8.219zM16 21.331c-2.944 0-5.331-2.387-5.331-5.331s2.387-5.331 5.331-5.331c2.944 0 5.331 2.387 5.331 5.331s-2.387 5.331-5.331 5.331z"></path>
<path d="M26.462 7.456c0 1.060-0.859 1.919-1.919 1.919s-1.919-0.859-1.919-1.919c0-1.060 0.859-1.919 1.919-1.919s1.919 0.859 1.919 1.919z"></path>
</symbol>
<symbol id="icon-twitter" viewBox="0 0 32 32">
<path d="M32 7.075c-1.175 0.525-2.444 0.875-3.769 1.031 1.356-0.813 2.394-2.1 2.887-3.631-1.269 0.75-2.675 1.3-4.169 1.594-1.2-1.275-2.906-2.069-4.794-2.069-3.625 0-6.563 2.938-6.563 6.563 0 0.512 0.056 1.012 0.169 1.494-5.456-0.275-10.294-2.888-13.531-6.862-0.563 0.969-0.887 2.1-0.887 3.3 0 2.275 1.156 4.287 2.919 5.463-1.075-0.031-2.087-0.331-2.975-0.819 0 0.025 0 0.056 0 0.081 0 3.181 2.263 5.838 5.269 6.437-0.55 0.15-1.131 0.231-1.731 0.231-0.425 0-0.831-0.044-1.237-0.119 0.838 2.606 3.263 4.506 6.131 4.563-2.25 1.762-5.075 2.813-8.156 2.813-0.531 0-1.050-0.031-1.569-0.094 2.913 1.869 6.362 2.95 10.069 2.95 12.075 0 18.681-10.006 18.681-18.681 0-0.287-0.006-0.569-0.019-0.85 1.281-0.919 2.394-2.075 3.275-3.394z"></path>
</symbol>
</defs>
</svg>
